<svg width="16" height="16" viewBox="0 0 16 16" fill="none" xmlns="http://www.w3.org/2000/svg">
<path d="M8 15C6.04583 15 4.39062 14.3219 3.03437 12.9656C1.67812 11.6094 1 9.95417 1 8C1 6.04583 1.67812 4.39062 3.03437 3.03437C4.39062 1.67812 6.04583 1 8 1C9.00625 1 9.96875 1.20796 10.8875 1.62387C11.8063 2.03921 12.5938 2.63333 13.25 3.40625V1.875C13.25 1.62708 13.334 1.41913 13.502 1.25113C13.6694 1.08371 13.8771 1 14.125 1C14.3729 1 14.5806 1.08371 14.748 1.25113C14.916 1.41913 15 1.62708 15 1.875V6.25C15 6.49792 14.916 6.70558 14.748 6.873C14.5806 7.041 14.3729 7.125 14.125 7.125H9.75C9.50208 7.125 9.29442 7.041 9.127 6.873C8.959 6.70558 8.875 6.49792 8.875 6.25C8.875 6.00208 8.959 5.79412 9.127 5.62612C9.29442 5.45871 9.50208 5.375 9.75 5.375H12.55C12.0833 4.55833 11.4455 3.91667 10.6364 3.45C9.82671 2.98333 8.94792 2.75 8 2.75C6.54167 2.75 5.30208 3.26042 4.28125 4.28125C3.26042 5.30208 2.75 6.54167 2.75 8C2.75 9.45833 3.26042 10.6979 4.28125 11.7188C5.30208 12.7396 6.54167 13.25 8 13.25C9.00625 13.25 9.93608 12.9837 10.7895 12.4511C11.6423 11.9191 12.2802 11.2083 12.7031 10.3187C12.776 10.1583 12.8965 10.0236 13.0645 9.9145C13.2319 9.80483 13.4031 9.75 13.5781 9.75C13.9135 9.75 14.1653 9.86667 14.3333 10.1C14.5007 10.3333 14.5187 10.5958 14.3875 10.8875C13.8333 12.1271 12.9802 13.1222 11.8281 13.873C10.676 14.6243 9.4 15 8 15Z" fill="black" fill-opacity="0.6"/>
</svg>
