<svg width="16" height="16" viewBox="0 0 16 16" fill="none" xmlns="http://www.w3.org/2000/svg">
<path d="M7.17978 14.7235L1.24719 8.63991C1.1573 8.54773 1.09348 8.44788 1.05573 8.34034C1.01858 8.2328 1 8.11758 1 7.99468C1 7.87178 1.01858 7.75656 1.05573 7.64902C1.09348 7.54149 1.1573 7.44163 1.24719 7.34946L7.17978 1.26589C7.34457 1.0969 7.55041 1.00841 7.7973 1.00043C8.04479 0.993051 8.25843 1.08154 8.4382 1.26589C8.61798 1.43488 8.71176 1.64596 8.71955 1.89913C8.72674 2.15292 8.64045 2.37199 8.46067 2.55634L4.05618 7.07293H14.1011C14.3558 7.07293 14.5694 7.16111 14.742 7.33747C14.914 7.51445 15 7.73352 15 7.99468C15 8.25585 14.914 8.47461 14.742 8.65097C14.5694 8.82795 14.3558 8.91643 14.1011 8.91643H4.05618L8.46067 13.433C8.62547 13.602 8.71176 13.8171 8.71955 14.0782C8.72674 14.3394 8.64045 14.5545 8.46067 14.7235C8.29588 14.9078 8.08614 15 7.83146 15C7.57678 15 7.35955 14.9078 7.17978 14.7235Z" fill="black" fill-opacity="0.4"/>
</svg>
