<svg width="8" height="12" viewBox="0 0 8 12" fill="none" xmlns="http://www.w3.org/2000/svg">
<path fill-rule="evenodd" clip-rule="evenodd" d="M3.66673 0.5C2.0467 0.5 0.733398 1.85858 0.733398 3.53448V6.56897C0.733398 8.24487 2.0467 9.60345 3.66673 9.60345C5.28678 9.60345 6.60007 8.24487 6.60007 6.56897V3.53448C6.60007 1.85858 5.28678 0.5 3.66673 0.5ZM3.66673 1.36699C2.50956 1.36699 1.57149 2.33741 1.57149 3.53448V6.56897C1.57149 7.76603 2.50956 8.73646 3.66673 8.73646C4.82389 8.73646 5.76198 7.76603 5.76198 6.56897V3.53448C5.76198 2.33741 4.82389 1.36699 3.66673 1.36699Z" fill="#8B8A8D"/>
<rect y="4.67242" width="7.33333" height="6.82759" rx="0.916667" fill="#8B8A8D"/>
</svg>
