<svg width="16" height="16" viewBox="0 0 16 16" fill="none" xmlns="http://www.w3.org/2000/svg">
<path d="M7.5618 14.7459C7.397 14.5765 7.31071 14.3608 7.30292 14.099C7.29573 13.8372 7.37453 13.6216 7.53933 13.4521L11.9438 8.92409H1.89888C1.64419 8.92409 1.43056 8.83538 1.25798 8.65795C1.08599 8.48114 1 8.26183 1 8C1 7.73817 1.08599 7.51855 1.25798 7.34112C1.43056 7.16431 1.64419 7.07591 1.89888 7.07591H11.9438L7.53933 2.54785C7.37453 2.37844 7.29573 2.16282 7.30292 1.90099C7.31071 1.63916 7.397 1.42354 7.5618 1.25413C7.72659 1.08471 7.93633 1 8.19101 1C8.44569 1 8.65543 1.08471 8.82022 1.25413L14.7528 7.35314C14.8427 7.43014 14.9065 7.52625 14.9443 7.64145C14.9814 7.75727 15 7.87679 15 8C15 8.12321 14.9814 8.23872 14.9443 8.34653C14.9065 8.45434 14.8427 8.55445 14.7528 8.64686L8.82022 14.7459C8.65543 14.9153 8.44569 15 8.19101 15C7.93633 15 7.72659 14.9153 7.5618 14.7459Z" fill="black" fill-opacity="0.4"/>
</svg>
